<svg width="24" height="24" viewBox="0 0 12.7 12.7" xmlns="http://www.w3.org/2000/svg"><path d="M6.485.007v2.084a.26.26 0 01-.008.098.26.26 0 01-.113.154L3.626 4.805H6.31a.26.26 0 01.24.084l.006.005.002.002a.26.26 0 01.059.212v2.273H9.73c.005 0 .009 0 .013-.002a.26.26 0 01.275.206v.001a.35.35 0 01.005.037v.004a.266.266 0 01-.113.23l-3.163 2.845v1.984A6.35 6.35 0 0012.7 6.35 6.35 6.35 0 006.485.007z" fill="#ffac76"/><path d="M5.965.014A6.35 6.35 0 000 6.35a6.35 6.35 0 006.227 6.344v-2.083a.262.262 0 01.102-.234l2.754-2.474H6.398a.267.267 0 01-.105-.004l-.011-.003a.26.26 0 01-.187-.336V5.325H3.007a.26.26 0 01-.327-.21.26.26 0 01.136-.282l3.149-2.83z" fill="#999"/><path d="M6.35 0a6.35 6.35 0 00-.385.014v1.988l-3.148 2.83a.26.26 0 00-.136.283.26.26 0 00.327.21h3.087V7.56a.26.26 0 00.187.336.26.26 0 00.011.003.26.26 0 00.105.004h2.685L6.33 10.377a.26.26 0 00-.087.116.26.26 0 00-.016.118v2.083a6.35 6.35 0 00.123.006 6.35 6.35 0 00.399-.014v-1.984l3.163-2.845a.26.26 0 00.113-.204.26.26 0 000-.002.26.26 0 000-.024.26.26 0 000-.004.26.26 0 00-.003-.023.26.26 0 00-.002-.014.26.26 0 00-.275-.207.26.26 0 00-.013.002H6.616V5.108a.26.26 0 00-.058-.212.26.26 0 00-.002-.002.26.26 0 00-.006-.005.26.26 0 00-.198-.088.26.26 0 00-.043.004H3.627l2.738-2.462a.26.26 0 00.112-.154.26.26 0 000-.003.26.26 0 00.006-.023.26.26 0 00.003-.072V.007A6.35 6.35 0 006.35 0z" fill="#fff"/><path d="M6.485.007v2.084a.262.262 0 01-.008.095v.003a.26.26 0 01-.113.154L3.626 4.805h.522l2.516-2.263a.26.26 0 00.118-.18.258.258 0 00.003-.07V.02c-.1-.007-.2-.012-.3-.014zM6.65 5a.298.298 0 00-.04.004.262.262 0 01.005.104v2.273h.3V5.308a.26.26 0 00-.06-.212l-.001-.002-.006-.005A.26.26 0 006.651 5zm3.393 2.579c-.004 0-.009 0-.013.002h-.014l.002.005a.35.35 0 01.005.037v.004a.266.266 0 01-.113.23l-3.163 2.845v1.985c.1-.006.2-.015.3-.026v-1.759l3.163-2.844a.26.26 0 00.113-.23v-.005l-.003-.022a.26.26 0 00-.278-.221z" fill="#ff924b"/></svg>